<svg xmlns="http://www.w3.org/2000/svg" width="84" height="77.001" viewBox="0 0 84 77.001">
  <g id="alarm" transform="translate(0 -2.5)">
    <path id="Path_9" data-name="Path 9" d="M63.434,43.1V30.508a20.371,20.371,0,0,0-11.942-18.5A28.145,28.145,0,0,0,46.6,10.3V9.5a7,7,0,1,0-14,0v.925a27.721,27.721,0,0,0-4.4,1.593c-6.129,2.825-12.34,9.635-12.4,18.481V43.1A31.062,31.062,0,0,1,6.413,65.907a1.4,1.4,0,0,0,.749,2.373l13.287,2.295c2.475.427,4.754.777,6.923,1.065a13.84,13.84,0,0,0,24.966,0c2.16-.287,4.428-.636,6.889-1.061L72.514,68.28a1.4,1.4,0,0,0,.749-2.373C66.742,59.424,63.434,51.751,63.434,43.1ZM35.4,9.5a4.2,4.2,0,1,1,8.4,0v.255a27.836,27.836,0,0,0-8.4.066Zm4.456,67.2a11.221,11.221,0,0,1-8.984-4.641,86.709,86.709,0,0,0,8.968.484,86.234,86.234,0,0,0,9-.489A11.224,11.224,0,0,1,39.856,76.7Zm18.9-8.886c-2.687.463-5.149.84-7.476,1.137h-.01c-1.026.13-2.023.244-3,.342h-.024c-.895.09-1.768.162-2.633.224l-.486.032c-.749.049-1.49.088-2.226.116-.15.006-.3.014-.451.018-1.742.059-3.459.059-5.2,0l-.468-.02c-.724-.029-1.453-.066-2.191-.115l-.526-.035c-.839-.06-1.687-.13-2.554-.217l-.1-.008c-.969-.1-1.957-.21-2.974-.339h-.013c-2.335-.3-4.808-.675-7.505-1.14L10.2,65.962A33.7,33.7,0,0,0,18.6,43.1V30.508c.048-7.609,5.443-13.492,10.767-15.947a25.028,25.028,0,0,1,4.9-1.656c.014,0,.029,0,.043,0a25.453,25.453,0,0,1,10.612-.1c.018,0,.036,0,.055,0a25.32,25.32,0,0,1,5.355,1.749A17.772,17.772,0,0,1,60.634,30.5V43.1a34.065,34.065,0,0,0,8.838,22.863Z" transform="translate(2.4)" fill="#fff"/>
    <path id="Path_10" data-name="Path 10" d="M43.784,14.369a21.392,21.392,0,0,0-17.457,0C23.254,15.789,18.042,19.934,18,26.488A1.4,1.4,0,0,0,19.392,27.9H19.4A1.4,1.4,0,0,0,20.8,26.5c.032-5.148,4.227-8.449,6.7-9.59a18.533,18.533,0,0,1,15.119,0,1.4,1.4,0,1,0,1.166-2.545Z" transform="translate(7.2 4.004)" fill="#fff"/>
    <path id="Path_11" data-name="Path 11" d="M6.723,22.91a1.4,1.4,0,0,0-1.98,0,16.23,16.23,0,0,0,0,22.932,1.4,1.4,0,1,0,1.98-1.98,13.432,13.432,0,0,1,0-18.973A1.4,1.4,0,0,0,6.723,22.91Z" transform="translate(0 8)" fill="#fff"/>
    <path id="Path_12" data-name="Path 12" d="M9.589,42.266a1.4,1.4,0,0,0,.99-2.39,9.192,9.192,0,0,1,0-12.986A1.4,1.4,0,0,0,8.6,24.91a12,12,0,0,0,0,16.946A1.39,1.39,0,0,0,9.589,42.266Z" transform="translate(2.038 8.8)" fill="#fff"/>
    <path id="Path_13" data-name="Path 13" d="M57.295,22.91a1.4,1.4,0,0,0-1.98,1.98,13.432,13.432,0,0,1,0,18.973,1.4,1.4,0,1,0,1.98,1.98,16.23,16.23,0,0,0,0-22.932Z" transform="translate(21.962 8)" fill="#fff"/>
    <path id="Path_14" data-name="Path 14" d="M51.105,24.91a1.4,1.4,0,0,0,0,1.98,9.192,9.192,0,0,1,0,12.986,1.4,1.4,0,1,0,1.98,1.98,12,12,0,0,0,0-16.946A1.4,1.4,0,0,0,51.105,24.91Z" transform="translate(20.278 8.8)" fill="#fff"/>
  </g>
</svg>
