<svg xmlns="http://www.w3.org/2000/svg" width="48" height="62.4" viewBox="0 0 48 62.4">
  <g id="clipboards" transform="translate(-48)">
    <g id="Group_21" data-name="Group 21" transform="translate(76.8 36)">
      <g id="Group_20" data-name="Group 20">
        <rect id="Rectangle_21" data-name="Rectangle 21" width="9.6" height="2.4" fill="#fff"/>
      </g>
    </g>
    <g id="Group_23" data-name="Group 23" transform="translate(76.8 43.2)">
      <g id="Group_22" data-name="Group 22">
        <rect id="Rectangle_22" data-name="Rectangle 22" width="9.6" height="2.4" fill="#fff"/>
      </g>
    </g>
    <g id="Group_25" data-name="Group 25" transform="translate(70.236 5.4)">
      <g id="Group_24" data-name="Group 24">
        <circle id="Ellipse_3" data-name="Ellipse 3" cx="1.8" cy="1.8" r="1.8" fill="#fff"/>
      </g>
    </g>
    <g id="Group_27" data-name="Group 27" transform="translate(48)">
      <g id="Group_26" data-name="Group 26" transform="translate(0)">
        <path id="Path_28" data-name="Path 28" d="M96,14.4a4.8,4.8,0,0,0-4.8-4.8H84.536a7.181,7.181,0,0,0-3.343-2.12A3.3,3.3,0,0,1,78.92,5.206a7.2,7.2,0,0,0-13.84,0A3.308,3.308,0,0,1,62.8,7.481,7.177,7.177,0,0,0,59.463,9.6H52.8A4.8,4.8,0,0,0,48,14.4V57.6a4.8,4.8,0,0,0,4.8,4.8H91.2A4.8,4.8,0,0,0,96,57.6C96,43.968,96,30.915,96,14.4Zm-36-.039a4.826,4.826,0,0,1,3.467-4.574,5.7,5.7,0,0,0,3.919-3.918,4.8,4.8,0,0,1,9.228,0A5.689,5.689,0,0,0,80.53,9.786,4.82,4.82,0,0,1,84,14.4v2.4H60ZM91.2,60H52.8a2.4,2.4,0,0,1-2.4-2.4V14.4A2.4,2.4,0,0,1,52.8,12h5.211a7.181,7.181,0,0,0-.411,2.343V19.2H86.4V14.4a7.179,7.179,0,0,0-.415-2.4H91.2a2.4,2.4,0,0,1,2.4,2.4c0,6.861,0,39.038,0,43.2A2.4,2.4,0,0,1,91.2,60Z" transform="translate(-48)" fill="#fff"/>
      </g>
    </g>
    <g id="Group_29" data-name="Group 29" transform="translate(57.6 26.263)">
      <g id="Group_28" data-name="Group 28">
        <path id="Path_29" data-name="Path 29" d="M131.171,175.088l-10.18,10.18L118.42,182.7l-1.7,1.7,4.268,4.268,3.01-3.009v6.37h-9.6v-12h7.2l2.4-2.4H112v16.8h14.4v-11.17l6.47-6.47Z" transform="translate(-111.998 -175.088)" fill="#fff"/>
      </g>
    </g>
  </g>
</svg>
