<svg id="Group_5" data-name="Group 5" xmlns="http://www.w3.org/2000/svg" width="42" height="41.997" viewBox="0 0 42 41.997">
  <g id="Group_6" data-name="Group 6">
    <g id="Group_1" data-name="Group 1">
      <path id="Path_1" data-name="Path 1" d="M38.243,24.391a19.37,19.37,0,0,0-2.154-13.956L39.427,7.1a.616.616,0,0,0-.306-1.038l-3.587-.774L34.34,4.092,33.566.506A.616.616,0,0,0,32.528.2L29.219,3.509A19.356,19.356,0,0,0,0,20.163,19.146,19.146,0,0,0,2.13,29a.616.616,0,1,0,1.1-.563A18.127,18.127,0,0,1,19.355,2.04,18.075,18.075,0,0,1,28.319,4.41L26.663,6.065a.616.616,0,0,0-.167.566l.15.7A14.767,14.767,0,0,0,10.521,8.337a.616.616,0,0,0,.738.987A13.531,13.531,0,0,1,27.01,9.009l.226,1.048L25.391,11.9A10.232,10.232,0,0,0,9.123,20.163,10.238,10.238,0,0,0,22.5,29.9l-.007.033q-.024.105-.046.211l-.009.044q-.052.257-.09.516l-.008.058q-.015.1-.027.208l-.007.056c-.01.087-.019.174-.026.261h0c-.007.084-.013.168-.018.252,0,.024,0,.049,0,.073q-.005.1-.008.191c0,.025,0,.05,0,.075,0,.085,0,.171,0,.256,0,.121,0,.242.007.363,0,.015,0,.03,0,.045s0,.041,0,.061q.008.171.022.341c0,.022,0,.045.005.067,0,.053.01.105.016.158,0,.037.008.073.012.11s.006.055.009.083A13.53,13.53,0,0,1,9.533,10.86a.616.616,0,0,0-.894-.847,14.761,14.761,0,0,0,13.91,24.562,9.8,9.8,0,0,0,.514,1.5l.01.024c.044.1.09.2.137.3l.035.07q.049.1.1.2.043.083.087.165l.017.03c.155.285.323.563.506.832A18.15,18.15,0,0,1,4.327,30.3a.616.616,0,0,0-1.021.69,19.379,19.379,0,0,0,21.479,7.76A9.874,9.874,0,1,0,38.243,24.391Zm-.765-4.228a18.225,18.225,0,0,1-.333,3.468,9.762,9.762,0,0,0-3.2-1.2,14.89,14.89,0,0,0,.174-2.265,14.668,14.668,0,0,0-1.87-7.2l.75.162a.624.624,0,0,0,.071.011h.027l.032,0h.04l.043,0,.027,0,.048-.011.019,0a.625.625,0,0,0,.063-.023l.021-.01.041-.021.022-.013.039-.027.018-.014a.593.593,0,0,0,.053-.047l1.625-1.625A18.087,18.087,0,0,1,37.478,20.163Zm-9.771-5.91L29.57,12.39l1.009.218a13.442,13.442,0,0,1,2.305,7.555,13.664,13.664,0,0,1-.165,2.115H32.7l-.175-.008-.09,0h-.027c-.094,0-.189,0-.284,0a9.94,9.94,0,0,0-1.856.174,9.782,9.782,0,0,0-.991.243,10.23,10.23,0,0,0,.312-2.514A10.116,10.116,0,0,0,27.707,14.253ZM37.756,7.026,34.879,9.9l-1.951,1.951-2.321-.5,4.829-4.829ZM32.6,1.87l.5,2.321L28.273,9.02l-.11-.508h0L27.772,6.7Zm1.17,3.395.591.591-5.426,5.426-8.562,8.562a.33.33,0,0,1-.466,0l-.125-.125a.334.334,0,0,1-.041-.05.329.329,0,0,1,.042-.416ZM18.807,20.476q.049.06.1.115l.125.125a1.562,1.562,0,0,0,2.209,0L23.3,18.658a4.221,4.221,0,1,1-2.287-2.38l-2.1,2.1a1.58,1.58,0,0,0-.2.238,1.563,1.563,0,0,0,.092,1.855ZM32.122,40.784a8.653,8.653,0,0,1-7.573-4.479c-.023-.041-.045-.083-.067-.124s-.049-.092-.073-.139q-.064-.126-.123-.254l-.024-.052a8.675,8.675,0,0,1-.711-2.469c0-.014,0-.028,0-.042-.014-.108-.026-.216-.036-.325-.005-.062-.009-.125-.013-.187s-.009-.122-.012-.183q0-.01,0-.02c-.005-.124-.008-.248-.008-.372s0-.231.008-.346c0-.036,0-.071.006-.107,0-.081.009-.161.016-.242,0-.04.007-.079.011-.119q.011-.118.026-.236c0-.037.009-.074.014-.111q.018-.136.041-.271c0-.023.007-.047.011-.07q.031-.173.068-.344l.01-.045q.033-.146.07-.29c.009-.033.018-.066.027-.1q.032-.118.068-.234c.011-.037.022-.073.034-.11.024-.076.05-.152.076-.228.012-.034.023-.068.036-.1q.05-.136.1-.271l.02-.051q.063-.155.133-.308c.017-.038.036-.076.054-.113.03-.064.061-.128.093-.192.023-.045.046-.09.07-.135s.059-.11.089-.165.052-.094.079-.14.061-.1.092-.155.056-.093.085-.14.066-.1.1-.152.055-.083.083-.124l.031-.045c.032-.046.065-.091.1-.137l.038-.051q.073-.1.148-.2l.052-.066c.048-.061.1-.121.147-.181a.616.616,0,0,0-.073-.868l-.012-.009a.616.616,0,0,0-.856.082l-.052.065-.019.021c-.058.071-.115.142-.171.214h0l0,0,0,0q-.22.283-.417.579l-.008.011-.007.011q-.089.134-.173.27l-.01.016-.02.034-.072.12,0,0-.019.033q-.1.17-.192.344l-.011.02-.034.064-.017.033-.024.048c-.123.242-.239.489-.342.741a9,9,0,0,1-12.619-8.243,9,9,0,0,1,14.154-7.379l-2.573,2.573a5.458,5.458,0,1,0,2.3,2.368l2.588-2.588a9.02,9.02,0,0,1,.991,8.109A9.892,9.892,0,0,0,26.528,24a.616.616,0,0,0-.267.513c0,.02,0,.04,0,.059a.615.615,0,0,0,.024.117c.006.019.013.038.021.057a.6.6,0,0,0,.1.166l.013.014c.012.013.024.025.037.037l.016.014.041.031.015.011a.644.644,0,0,0,.058.035h0a.621.621,0,0,0,.064.028l.013,0,.053.016.018,0,.052.009.016,0a.628.628,0,0,0,.064,0h0a.613.613,0,0,0,.083-.006l.014,0a.61.61,0,0,0,.161-.049l.014-.007a.605.605,0,0,0,.076-.044q.15-.1.3-.2l.066-.04q.122-.075.246-.146l.084-.047q.118-.066.238-.127l.089-.045q.122-.061.246-.118a8.61,8.61,0,0,1,3.621-.793c.1,0,.2,0,.3.006l.125.006.165.01.159.012.112.011.143.015.074.009.178.024q.116.017.232.037l.073.013a8.647,8.647,0,0,1-1.56,17.151Z" transform="translate(0 -0.02)" fill="#fff"/>
    </g>
  </g>
</svg>
