<svg xmlns="http://www.w3.org/2000/svg" width="72" height="72.002" viewBox="0 0 72 72.002">
  <g id="search" transform="translate(-0.005 0)">
    <path id="Path_15" data-name="Path 15" d="M70.281,61.937a5.9,5.9,0,0,1-8.339,8.339L44.75,53.084a1.417,1.417,0,0,1,0-2.008l.688-.688L43.75,48.7a27.174,27.174,0,1,1,4.957-4.955l1.686,1.686.688-.688a1.421,1.421,0,0,1,2.01,0Zm-2.009,6.332a3.06,3.06,0,0,0,0-4.322L52.086,47.759l-4.322,4.322L63.95,68.269A3.06,3.06,0,0,0,68.272,68.269Zm-16.764-41.1A24.338,24.338,0,0,0,9.96,9.957,24.337,24.337,0,1,0,44.379,44.374,24.179,24.179,0,0,0,51.508,27.165ZM47.447,48.38l.938-.938-1.534-1.534c-.152.161-.307.318-.462.475s-.316.311-.475.462Z" transform="translate(0)" fill="#7646ff"/>
    <path id="Path_16" data-name="Path 16" d="M272.676,268.351a3.056,3.056,0,0,1-4.322,4.322l-16.186-16.188,4.322-4.322Z" transform="translate(-204.404 -204.404)" fill="#fff"/>
    <path id="Path_17" data-name="Path 17" d="M56.484,22.061a24.337,24.337,0,1,1-17.209-7.129A24.179,24.179,0,0,1,56.484,22.061ZM60.617,39.27a21.342,21.342,0,1,0-6.252,15.091A21.208,21.208,0,0,0,60.617,39.27Z" transform="translate(-12.105 -12.104)" fill="#fff"/>
    <path id="Path_18" data-name="Path 18" d="M244.869,243.926l-.938.938L242.4,243.33c.159-.152.318-.3.475-.462s.311-.314.462-.475Z" transform="translate(-196.484 -196.484)" fill="#fff"/>
    <path id="Path_19" data-name="Path 19" d="M67.188,37A21.342,21.342,0,1,1,52.1,30.752,21.208,21.208,0,0,1,67.188,37ZM65.18,65.175A18.5,18.5,0,1,0,52.1,70.594,18.523,18.523,0,0,0,65.18,65.175Z" transform="translate(-24.928 -24.928)" fill="#6035d0"/>
    <path id="Path_20" data-name="Path 20" d="M182.934,69.88a1.42,1.42,0,1,1-2.01,2.008,13.813,13.813,0,0,0-2.6-2.042,1.421,1.421,0,0,1,1.477-2.428A16.8,16.8,0,0,1,182.934,69.88Z" transform="translate(-143.996 -54.482)" fill="#7646ff"/>
    <path id="Path_21" data-name="Path 21" d="M141.406,193.181a1.419,1.419,0,0,1,0,2.008,16.54,16.54,0,0,1-11.741,4.877,16.9,16.9,0,0,1-2-.119,1.42,1.42,0,0,1,.335-2.82,13.733,13.733,0,0,0,11.394-3.945A1.421,1.421,0,0,1,141.406,193.181Z" transform="translate(-102.468 -156.256)" fill="#7646ff"/>
    <path id="Path_22" data-name="Path 22" d="M93.858,55.771a1.42,1.42,0,1,1-.438,2.807,13.859,13.859,0,0,0-11.894,3.877,1.42,1.42,0,0,1-2.01-2.008A16.711,16.711,0,0,1,93.858,55.771Z" transform="translate(-64.115 -45.049)" fill="#7646ff"/>
    <path id="Path_23" data-name="Path 23" d="M83.994,195.143a1.421,1.421,0,0,1-1.5,2.411,16.739,16.739,0,0,1-2.974-2.366,1.42,1.42,0,0,1,2.01-2.008A13.849,13.849,0,0,0,83.994,195.143Z" transform="translate(-64.115 -156.256)" fill="#7646ff"/>
  </g>
</svg>
