<svg xmlns="http://www.w3.org/2000/svg" width="48" height="45.964" viewBox="0 0 48 45.964">
  <g id="star-outline" transform="translate(0 -9.973)" opacity="0.54">
    <path id="Path_31" data-name="Path 31" d="M11.138,55.937a3.19,3.19,0,0,1-3.033-4.173l4.2-12.92L1.315,30.86a3.188,3.188,0,0,1,1.873-5.767H16.771l4.2-12.918a3.187,3.187,0,0,1,6.062,0l4.2,12.918H44.812a3.188,3.188,0,0,1,1.875,5.766L35.7,38.844l4.2,12.919a3.182,3.182,0,0,1-1.157,3.564,3.237,3.237,0,0,1-3.748,0L24,47.343,13.011,55.328A3.166,3.166,0,0,1,11.138,55.937ZM3.188,27.826a.456.456,0,0,0-.268.824l12.6,9.15L10.7,52.608a.455.455,0,0,0,.166.509.384.384,0,0,0,.535,0L24,43.965l12.594,9.151a.388.388,0,0,0,.536,0,.455.455,0,0,0,.165-.51L32.484,37.8l12.6-9.151a.455.455,0,0,0-.268-.824H29.244L24.434,13.02a.474.474,0,0,0-.867,0l-4.81,14.806H3.188Z" transform="translate(0)" fill="#172735"/>
  </g>
</svg>
